<?xml version="1.0" encoding="UTF-8"?><svg id="Layer_1" xmlns="http://www.w3.org/2000/svg" viewBox="0 0 595.28 419.53"><defs><style>.cls-1{stroke-dasharray:1.91 1.91;}.cls-1,.cls-2,.cls-3,.cls-4,.cls-5,.cls-6,.cls-7{fill:none;stroke:#1d1d1b;stroke-miterlimit:10;}.cls-1,.cls-2,.cls-3,.cls-5,.cls-6,.cls-7{stroke-width:.25px;}.cls-2{stroke-dasharray:1.95 1.95;}.cls-8{fill:#1d1d1b;}.cls-3{stroke-dasharray:2.05 2.05;}.cls-4{stroke-width:.5px;}.cls-6{stroke-dasharray:2 2;}.cls-7{stroke-dasharray:1.99 1.99;}</style></defs><rect class="cls-7" x="65.84" y="102.05" width="215.43" height="215.43" rx="51.02" ry="51.02"/><circle class="cls-2" cx="173.55" cy="209.79" r="9.92" transform="translate(-61.33 347.5) rotate(-80.78)"/><circle class="cls-2" cx="116.86" cy="266.54" r="9.92"/><circle class="cls-2" cx="230.25" cy="152.99" r="9.92"/><circle class="cls-3" cx="230.25" cy="266.54" r="8.5"/><circle class="cls-6" cx="116.44" cy="152.99" r="12.76"/><circle class="cls-1" cx="173.55" cy="116.22" r="4.25" transform="translate(-31.26 75.26) rotate(-22.5)"/><path class="cls-1" d="M271.35,209.76c0,2.35-1.9,4.25-4.25,4.25s-4.25-1.9-4.25-4.25,1.9-4.25,4.25-4.25,4.25,1.9,4.25,4.25Z"/><circle class="cls-1" cx="173.55" cy="303.31" r="4.25"/><circle class="cls-1" cx="80.01" cy="209.76" r="4.25"/><line class="cls-4" x1="79.12" y1="152.99" x2="91.8" y2="152.99"/><polygon class="cls-8" points="90.15 155.04 89.8 154.67 91.61 152.99 89.8 151.31 90.15 150.95 92.34 152.99 90.15 155.04"/><line class="cls-4" x1="250.09" y1="266.54" x2="262.77" y2="266.54"/><polygon class="cls-8" points="261.11 268.58 260.77 268.22 262.58 266.54 260.77 264.86 261.11 264.49 263.31 266.54 261.11 268.58"/><path d="M212.18,180.51h3.03v.5h-2.45v1.9h2.14v.5h-2.14v1.9h-.58v-4.8Z"/><path d="M216.58,183.46c0-1.23.72-1.96,1.77-1.96s1.59.66,1.59,1.68c0,.09,0,.25-.02.38h-2.78c.03.87.42,1.38,1.21,1.38.65,0,.96-.36,1.09-.78l.48.12c-.18.66-.7,1.11-1.56,1.11-1.13,0-1.77-.71-1.77-1.94ZM219.43,183.17c-.02-.79-.37-1.24-1.1-1.24s-1.11.42-1.19,1.24h2.29Z"/><path d="M221.26,183.46c0-1.23.72-1.96,1.77-1.96s1.59.66,1.59,1.68c0,.09,0,.25-.02.38h-2.78c.03.87.42,1.38,1.21,1.38.65,0,.96-.36,1.09-.78l.48.12c-.18.66-.7,1.11-1.56,1.11-1.13,0-1.77-.71-1.77-1.94ZM224.11,183.17c-.02-.79-.37-1.24-1.1-1.24s-1.11.42-1.19,1.24h2.29Z"/><path d="M227.25,181.5c.66,0,1.06.42,1.26.96h.08v-2.51h.55v5.36h-.55v-.88h-.09c-.22.54-.72.97-1.3.97-.82,0-1.42-.73-1.42-1.94s.58-1.96,1.46-1.96ZM228.6,183.2c0-.7-.47-1.2-1.11-1.2-.71,0-1.14.51-1.14,1.46s.42,1.46,1.14,1.46c.63,0,1.11-.5,1.11-1.19v-.52Z"/><path d="M232.74,185.39c-.59,0-1.09-.42-1.32-.97h-.09v.88h-.55v-5.36h.55v2.51h.08c.21-.54.62-.96,1.29-.96.82,0,1.43.74,1.43,1.96s-.62,1.94-1.39,1.94ZM231.33,183.72c0,.69.46,1.19,1.13,1.19.71,0,1.13-.53,1.13-1.46s-.42-1.46-1.12-1.46-1.14.5-1.14,1.2v.52Z"/><path d="M235.28,184.35c0-.61.42-1.05,1.33-1.05h1.29v-.45c0-.5-.26-.9-.91-.9-.54,0-.88.3-1.03.68l-.5-.19c.21-.52.77-.94,1.55-.94.96,0,1.45.54,1.45,1.35v2.45h-.5v-.82h-.11c-.22.52-.69.9-1.37.9s-1.19-.39-1.19-1.03ZM236.69,183.66c-.58,0-.9.23-.9.67,0,.32.28.61.85.61.73,0,1.25-.42,1.25-1v-.28h-1.2Z"/><path d="M241.73,181.5c.9,0,1.45.43,1.61,1.26l-.5.12c-.13-.57-.45-.91-1.12-.91-.79,0-1.21.51-1.21,1.49,0,.9.38,1.48,1.23,1.48.66,0,.99-.42,1.12-.91l.5.16c-.18.78-.76,1.22-1.62,1.22-1.16,0-1.78-.72-1.78-1.94s.67-1.96,1.77-1.96Z"/><path d="M245.05,179.95h.54v3.25h.77l1.22-1.61h.56v.16l-1.38,1.66,1.54,1.74v.16h-.57l-1.34-1.63h-.8v1.63h-.54v-5.36Z"/><path d="M225.69,285.06c1.19,0,1.86.89,1.86,2.48s-.67,2.49-1.86,2.49-1.87-.9-1.87-2.49.67-2.48,1.87-2.48ZM225.69,289.53c.86,0,1.29-.66,1.29-1.99s-.42-1.97-1.29-1.97-1.3.65-1.3,1.97.42,1.99,1.3,1.99Z"/><path d="M228.86,286.23h.54v2.41c0,.57.2.89.72.89.68,0,1.18-.53,1.18-1.23v-2.07h.54v3.72h-.52v-.92h-.1c-.22.55-.7,1.01-1.31,1.01-.66,0-1.05-.45-1.05-1.28v-2.53Z"/><path d="M234.2,286.68h-.97v-.46h.97v-1.08h.54v1.08h1.92v.46h-1.92v1.83c0,.69.27,1.04.94,1.04.28,0,.56-.06.94-.23l.12.44c-.42.18-.77.27-1.16.27-.96,0-1.38-.59-1.38-1.43v-1.92Z"/><path d="M167.15,237.17h.96l.5,2.24c.08.38.15.86.26,1.44h.14c.12-.76.22-1.29.38-2.02l.34-1.66h.94v4.8h-.53v-2.45c0-.61.04-1.37.06-1.87h-.18c-.09.54-.18,1.14-.3,1.66l-.49,2.06h-.66l-.54-2.22c-.1-.42-.21-1.02-.3-1.5h-.15c.02.5.06,1.22.06,1.75v2.57h-.52v-4.8Z"/><path d="M171.93,241.51h1.5v-2.81h-1.42v-.46h1.97v3.26h1.3v.46h-3.33v-.46ZM173.17,236.72h.84v.59h-.84v-.59Z"/><path d="M176.58,238.25h.55l1.06,1.57h.23l1-1.57h.52v.16l-1.25,1.7,1.26,1.7v.16h-.55l-1.04-1.66h-.23l-1.02,1.66h-.54v-.16l1.27-1.77-1.27-1.63v-.16Z"/><path d="M105.65,294.03h1.47c1.28,0,1.86.74,1.86,2.37s-.74,2.42-1.86,2.42h-1.47v-4.8ZM107.08,298.33c.98,0,1.33-.75,1.33-1.94,0-1.38-.38-1.89-1.36-1.89h-.82v3.82h.85Z"/><path d="M110.2,296.98c0-1.23.72-1.96,1.77-1.96s1.59.66,1.59,1.68c0,.09,0,.25-.02.38h-2.78c.03.87.42,1.38,1.21,1.38.65,0,.96-.36,1.09-.78l.48.12c-.18.66-.7,1.11-1.56,1.11-1.13,0-1.77-.71-1.77-1.94ZM113.04,296.69c-.02-.79-.37-1.24-1.1-1.24s-1.11.42-1.19,1.24h2.29Z"/><path d="M114.89,298.37h1.46v-4.45h-1.38v-.46h1.94v4.9h1.33v.46h-3.33v-.46Z"/><path d="M119.53,297.87c0-.61.42-1.05,1.33-1.05h1.29v-.45c0-.5-.26-.9-.91-.9-.54,0-.88.3-1.03.68l-.5-.19c.21-.52.77-.94,1.55-.94.96,0,1.45.54,1.45,1.35v2.45h-.5v-.82h-.11c-.22.52-.69.9-1.37.9s-1.19-.39-1.19-1.03ZM120.95,297.18c-.58,0-.9.23-.9.67,0,.32.28.61.85.61.73,0,1.25-.42,1.25-1v-.28h-1.2Z"/><path d="M124.06,299.69c.17.03.32.05.48.05.48,0,.78-.13,1.16-.93l-1.72-3.71h.62l.53,1.33c.22.56.55,1.34.78,1.96h.16c.21-.63.52-1.43.72-1.96l.5-1.33h.58l-1.69,3.77c-.43.95-.89,1.37-1.64,1.37-.24,0-.42-.03-.57-.06l.09-.49Z"/><path d="M112.77,177.09h3.14v.49h-1.28v3.82h1.28v.49h-3.14v-.49h1.29v-3.82h-1.29v-.49Z"/><path d="M117.54,178.17h.52v.92h.1c.22-.54.7-1.01,1.31-1.01.66,0,1.06.45,1.06,1.28v2.53h-.55v-2.41c0-.58-.18-.9-.7-.9-.7,0-1.18.53-1.18,1.23v2.07h-.55v-3.72Z"/><circle class="cls-5" cx="173.55" cy="209.79" r="19.84"/><circle class="cls-5" cx="230.25" cy="153.02" r="19.84"/><circle class="cls-5" cx="116.76" cy="266.54" r="19.84"/><rect class="cls-5" x="60.17" y="96.38" width="226.77" height="226.77" rx="56.69" ry="56.69"/><circle class="cls-5" cx="173.55" cy="116.22" r="7.65"/><circle class="cls-5" cx="267.1" cy="209.76" r="7.65"/><circle class="cls-5" cx="173.55" cy="303.31" r="7.65"/><circle class="cls-5" cx="80.01" cy="209.76" r="7.65"/><polygon class="cls-5" points="126.36 135.81 106.52 135.81 96.6 152.99 106.52 170.18 126.36 170.18 136.28 152.99 126.36 135.81"/><polygon class="cls-5" points="236.62 255.49 223.87 255.49 217.49 266.54 223.87 277.58 236.62 277.58 243 266.54 236.62 255.49"/><rect class="cls-7" x="314.01" y="102.05" width="215.43" height="215.43" rx="51.02" ry="51.02"/><circle class="cls-2" cx="421.72" cy="209.79" r="9.92" transform="translate(147.09 592.46) rotate(-80.78)"/><circle class="cls-6" cx="478.42" cy="266.54" r="12.76"/><circle class="cls-3" cx="364.61" cy="152.99" r="8.5"/><circle class="cls-1" cx="421.72" cy="116.22" r="4.25" transform="translate(-12.37 170.23) rotate(-22.5)"/><circle class="cls-1" cx="515.27" cy="209.76" r="4.25"/><circle class="cls-1" cx="421.72" cy="303.31" r="4.25"/><circle class="cls-1" cx="328.18" cy="209.76" r="4.25"/><line class="cls-4" x1="331.54" y1="152.99" x2="344.22" y2="152.99"/><polygon class="cls-8" points="342.57 155.04 342.23 154.67 344.03 152.99 342.23 151.31 342.57 150.95 344.77 152.99 342.57 155.04"/><line class="cls-4" x1="502.51" y1="266.54" x2="515.19" y2="266.54"/><polygon class="cls-8" points="513.53 268.58 513.19 268.22 515 266.54 513.19 264.86 513.53 264.49 515.73 266.54 513.53 268.58"/><path d="M360.73,171.43h3.14v.49h-1.28v3.82h1.28v.49h-3.14v-.49h1.29v-3.82h-1.29v-.49Z"/><path d="M365.5,172.51h.52v.92h.1c.22-.54.7-1.01,1.31-1.01.66,0,1.06.45,1.06,1.28v2.53h-.55v-2.41c0-.58-.18-.9-.7-.9-.7,0-1.18.53-1.18,1.23v2.07h-.55v-3.72Z"/><path d="M413.04,239.62c0-1.62.59-2.54,1.8-2.54.98,0,1.47.56,1.64,1.58l-.54.13c-.15-.84-.45-1.2-1.08-1.2-.92,0-1.24.73-1.24,2.04s.36,1.94,1.22,1.94c.94,0,1.18-.74,1.18-1.52h-1.11v-.47h1.66v2.39h-.53v-1.04h-.1c-.2.61-.57,1.12-1.3,1.12-.9,0-1.59-.61-1.59-2.42Z"/><path d="M417.82,241.02c0-.61.42-1.05,1.33-1.05h1.29v-.45c0-.5-.26-.9-.91-.9-.54,0-.88.3-1.03.68l-.5-.19c.21-.52.77-.94,1.55-.94.96,0,1.45.54,1.45,1.35v2.45h-.5v-.82h-.11c-.22.52-.69.9-1.37.9s-1.19-.39-1.19-1.03ZM419.24,240.32c-.58,0-.9.23-.9.67,0,.32.28.61.85.61.73,0,1.25-.42,1.25-1v-.28h-1.2Z"/><path d="M422.54,241.51h1.5v-2.81h-1.42v-.46h1.97v3.26h1.3v.46h-3.33v-.46ZM423.79,236.72h.84v.59h-.84v-.59Z"/><path d="M427.41,238.25h.52v.92h.1c.22-.54.7-1.01,1.31-1.01.66,0,1.06.45,1.06,1.28v2.53h-.55v-2.41c0-.58-.18-.9-.7-.9-.7,0-1.18.53-1.18,1.23v2.07h-.55v-3.72Z"/><path d="M473.82,290.63c1.19,0,1.86.89,1.86,2.48s-.67,2.49-1.86,2.49-1.87-.9-1.87-2.49.67-2.48,1.87-2.48ZM473.82,295.1c.86,0,1.29-.66,1.29-1.99s-.42-1.97-1.29-1.97-1.3.65-1.3,1.97.42,1.99,1.3,1.99Z"/><path d="M476.99,291.8h.54v2.41c0,.57.2.89.72.89.68,0,1.18-.53,1.18-1.23v-2.07h.54v3.72h-.52v-.92h-.1c-.22.55-.7,1.01-1.31,1.01-.66,0-1.05-.45-1.05-1.28v-2.53Z"/><path d="M482.34,292.25h-.97v-.46h.97v-1.08h.54v1.08h1.92v.46h-1.92v1.83c0,.69.27,1.04.94,1.04.28,0,.56-.06.94-.23l.12.44c-.42.18-.77.27-1.16.27-.96,0-1.38-.59-1.38-1.43v-1.92Z"/><path class="cls-8" d="M492.16,157.86c.23,0,.43-.19.43-.42v-3.37c0-1.78-1.29-3.14-3.02-3.14-1.82,0-3.18,1.37-3.18,3.14v3.37c0,.23.19.43.43.42h0c.23,0,.42-.19.42-.42v-3.47c0-1.29.99-2.28,2.31-2.28s2.19.99,2.19,2.28v3.47c0,.23.19.42.42.42h0Z"/><path class="cls-8" d="M467.86,151.01c-1.27,0-2.28.63-2.78,1.43v-4.01c0-.23-.19-.42-.42-.42h0c-.23,0-.42.19-.42.42v6.17c.01.39.1,1.27.74,2.07,1.05,1.33,2.68,1.32,2.89,1.32.35,0,1.11-.05,1.85-.53.95-.61,1.55-1.69,1.55-2.95,0-1.97-1.46-3.5-3.4-3.5ZM467.8,157.23c-.31,0-.61-.05-.88-.13h-.04c-.77-.26-1.37-.83-1.66-1.57l-.04-.1c-.1-.29-.15-.59-.15-.92,0-1.54,1.19-2.73,2.77-2.73s2.63,1.19,2.63,2.73-1.13,2.72-2.63,2.72Z"/><path class="cls-8" d="M476.08,151.01c-1.96,0-3.45,1.5-3.45,3.5s1.47,3.5,3.53,3.5c1.02,0,2.04-.38,2.73-1.14.16-.17.13-.45-.06-.58h0c-.16-.12-.38-.1-.51.04-.55.57-1.3.91-2.14.91-1.38,0-2.53-.97-2.68-2.43,0-.05.03-.09.08-.09h5.33c.23,0,.42-.19.42-.42v-.16c0-1.71-1.22-3.12-3.25-3.12ZM473.62,154s-.08-.04-.08-.09c.14-1.28,1.21-2.14,2.54-2.14s2.32.86,2.42,2.14c0,.05-.03.08-.08.08h-4.8Z"/><path class="cls-8" d="M481.62,157.86h0c-.24,0-.43-.19-.43-.43v-3.69c0-.26.04-.76.32-1.28.54-1.02,1.54-1.31,1.68-1.35.56-.16,1.05-.1,1.38-.02.19.04.31.22.29.42h0c-.02.22-.23.38-.45.34-.17-.03-.36-.05-.59-.03-.64.07-1.05.43-1.17.55-.17.17-.29.34-.38.51-.15.29-.22.61-.22.93v3.63c0,.23-.2.42-.43.42Z"/><circle class="cls-5" cx="421.72" cy="209.79" r="19.84"/><polygon class="cls-5" points="370.99 141.94 358.23 141.94 351.85 152.99 358.23 164.04 370.99 164.04 377.36 152.99 370.99 141.94"/><polygon class="cls-5" points="488.4 249.35 468.56 249.35 458.64 266.54 468.56 283.72 488.4 283.72 498.33 266.54 488.4 249.35"/><circle class="cls-5" cx="421.72" cy="116.22" r="7.65"/><circle class="cls-5" cx="515.27" cy="209.76" r="7.65"/><circle class="cls-5" cx="421.72" cy="303.31" r="7.65"/><circle class="cls-5" cx="328.18" cy="209.76" r="7.65"/><rect class="cls-5" x="308.34" y="96.38" width="226.77" height="226.77" rx="56.69" ry="56.69"/></svg>